<svg width="79" height="24" viewBox="0 0 79 24" fill="none" xmlns="http://www.w3.org/2000/svg">
<g clip-path="url(#clip0_404_5855)">
<path d="M0 24H23.9568V0H0V24ZM1.48916 1.492H22.4666V22.507H1.48916V1.492Z" fill="#171717"/>
<path d="M5.113 18.8782H18.6289V17.3862H6.60314V12.7422H15.1845V11.2502H6.60314V6.61117H18.6289V5.11917H5.113V18.8782Z" fill="#171717"/>
<path d="M27.5227 24H51.4794V0H27.5227V24ZM29.0119 1.492H49.9893V22.507H29.0119V1.492Z" fill="#171717"/>
<path d="M39.7671 16.5448L33.6386 5.00977H31.951L39.1094 18.4838H40.4247L47.5831 5.00977H45.8955L39.7671 16.5448Z" fill="#171717"/>
<path d="M55.0435 0V24H79.0002V0H55.0435ZM77.5101 22.508H56.5326V1.492H77.5101V22.508Z" fill="#171717"/>
<path d="M66.7575 7.4553L72.8859 18.9903H74.5735L66.7575 4.27927L58.9414 18.9903H60.6291L66.7575 7.4553Z" fill="#171717"/>
</g>
<defs>
<clipPath id="clip0_404_5855">
<rect width="79" height="24" fill="white"/>
</clipPath>
</defs>
</svg>
